<svg width="24" height="25" viewBox="0 0 24 25" fill="none" xmlns="http://www.w3.org/2000/svg">
<path d="M21 13.3416C18.2207 14.4666 15.1827 15.0862 12 15.0862C8.8173 15.0862 5.7793 14.4666 3 13.3416M16 6.08618V4.08618C16 2.98161 15.1046 2.08618 14 2.08618H10C8.89543 2.08618 8 2.98161 8 4.08618V6.08618M12 12.0862H12.01M5 20.0862H19C20.1046 20.0862 21 19.1908 21 18.0862V8.08618C21 6.98161 20.1046 6.08618 19 6.08618H5C3.89543 6.08618 3 6.98161 3 8.08618V18.0862C3 19.1908 3.89543 20.0862 5 20.0862Z" stroke="#FBFCFD" stroke-width="1.5" stroke-linecap="round" stroke-linejoin="round"/>
</svg>
