<svg width="24" height="25" viewBox="0 0 24 25" fill="none" xmlns="http://www.w3.org/2000/svg">
<path d="M2.5 11.0246C2.5 9.8004 3.06058 8.64362 4.02142 7.88506L9.52142 3.54295C10.9747 2.39566 13.0253 2.39566 14.4786 3.54295L19.9786 7.88506C20.9394 8.64362 21.5 9.8004 21.5 11.0246V17.5862C21.5 19.7953 19.7091 21.5862 17.5 21.5862H16C15.4477 21.5862 15 21.1385 15 20.5862V17.5862C15 16.4816 14.1046 15.5862 13 15.5862H11C9.89543 15.5862 9 16.4816 9 17.5862V20.5862C9 21.1385 8.55228 21.5862 8 21.5862H6.5C4.29086 21.5862 2.5 19.7953 2.5 17.5862L2.5 11.0246Z" stroke="white" stroke-width="1.5"/>
</svg>
