<svg width="35" height="36" viewBox="0 0 35 36" fill="none" xmlns="http://www.w3.org/2000/svg">
<rect x="0.152466" y="0.862793" width="34.2865" height="34.2865" rx="4.28581" fill="white"/>
<path d="M3.724 16.4896C3.724 14.7407 4.52485 13.0881 5.89751 12.0045L13.7548 5.80131C15.8309 4.16228 18.7605 4.16228 20.8366 5.80131L28.694 12.0045C30.0666 13.0881 30.8675 14.7407 30.8675 16.4896V25.8635C30.8675 29.0195 28.309 31.5779 25.1531 31.5779H23.0101C22.2212 31.5779 21.5815 30.9383 21.5815 30.1493V25.8635C21.5815 24.2855 20.3023 23.0063 18.7243 23.0063H15.8671C14.2891 23.0063 13.0099 24.2855 13.0099 25.8635V30.1493C13.0099 30.9383 12.3703 31.5779 11.5813 31.5779H9.43842C6.28243 31.5779 3.724 29.0195 3.724 25.8635L3.724 16.4896Z" stroke="#717171" stroke-width="2.14291"/>
</svg>
