<svg width="71" height="72" viewBox="0 0 71 72" fill="none" xmlns="http://www.w3.org/2000/svg">
<rect y="0.5" width="71" height="71" rx="8.875" fill="white"/>
<path d="M7.39583 32.8595C7.39583 29.2379 9.05421 25.8158 11.8967 23.5717L28.1675 10.7263C32.4667 7.33221 38.5333 7.33221 42.8325 10.7263L59.1033 23.5717C61.9458 25.8158 63.6042 29.2379 63.6042 32.8595V52.2708C63.6042 58.8062 58.3062 64.1042 51.7708 64.1042H47.3333C45.6995 64.1042 44.375 62.7797 44.375 61.1458V52.2708C44.375 49.0032 41.726 46.3542 38.4583 46.3542H32.5417C29.274 46.3542 26.625 49.0032 26.625 52.2708V61.1458C26.625 62.7797 25.3005 64.1042 23.6667 64.1042H19.2292C12.6938 64.1042 7.39583 58.8062 7.39583 52.2708L7.39583 32.8595Z" stroke="#A8008D" stroke-width="4.4375"/>
</svg>
