<svg width="191" height="68" viewBox="0 0 191 68" fill="none" xmlns="http://www.w3.org/2000/svg">
<mask id="mask0_435_4734" style="mask-type:luminance" maskUnits="userSpaceOnUse" x="0" y="46" width="22" height="22">
<path d="M0.192871 46.0269H21.7205V67.0862H0.192871V46.0269Z" fill="white"/>
</mask>
<g mask="url(#mask0_435_4734)">
<path d="M21.4452 65.769H1.95275V46.449H0.192871V67.0863H21.4452V65.769Z" fill="white"/>
</g>
<mask id="mask1_435_4734" style="mask-type:luminance" maskUnits="userSpaceOnUse" x="169" y="46" width="22" height="22">
<path d="M169.92 46.0269H190.877V67.0862H169.92V46.0269Z" fill="white"/>
</mask>
<g mask="url(#mask1_435_4734)">
<path d="M189.608 46.449V65.769H170.116V67.0863H191.368V46.449H189.608Z" fill="white"/>
</g>
<path d="M17.9816 34.9751C21.5476 34.9751 24.3418 35.8267 26.359 37.5274C28.3813 39.2307 29.395 41.5695 29.395 44.5463C29.395 47.5258 28.3813 49.8568 26.359 51.5447C24.3418 53.2325 21.5476 54.0764 17.9816 54.0764H10.4892V62.8964H7.53552V34.9751H17.9816ZM17.9095 51.4829C20.6728 51.4829 22.7878 50.8809 24.2492 49.6716C25.7106 48.4649 26.4413 46.7565 26.4413 44.5463C26.4413 42.2899 25.7106 40.5583 24.2492 39.3491C22.7878 38.1346 20.6728 37.5274 17.9095 37.5274H10.4892V51.4829H17.9095Z" fill="white"/>
<path d="M45.7886 63.1332C43.0227 63.1332 40.5141 62.5157 38.2654 61.2807C36.0218 60.0457 34.2671 58.3528 33.0063 56.1967C31.743 54.0431 31.1127 51.622 31.1127 48.9307C31.1127 46.2498 31.743 43.8312 33.0063 41.6751C34.2671 39.5216 36.0218 37.826 38.2654 36.591C40.5141 35.356 43.0227 34.7385 45.7886 34.7385C48.5519 34.7385 51.0425 35.3509 53.2603 36.5704C55.4833 37.7926 57.2329 39.4881 58.5091 41.6545C59.7853 43.8235 60.4233 46.2498 60.4233 48.9307C60.4233 51.622 59.7853 54.0508 58.5091 56.2172C57.2329 58.3862 55.4833 60.0818 53.2603 61.3013C51.0425 62.5235 48.5519 63.1332 45.7886 63.1332ZM45.7886 60.4986C47.9961 60.4986 49.9902 60.002 51.768 59.0063C53.5511 58.0131 54.9482 56.6289 55.9568 54.8587C56.9705 53.0886 57.4799 51.1126 57.4799 48.9307C57.4799 46.7566 56.9705 44.7832 55.9568 43.013C54.9482 41.2429 53.5511 39.8612 51.768 38.8655C49.9902 37.8646 47.9961 37.3629 45.7886 37.3629C43.5785 37.3629 41.5742 37.8646 39.7783 38.8655C37.9875 39.8612 36.5801 41.2429 35.5587 43.013C34.5346 44.7832 34.0252 46.7566 34.0252 48.9307C34.0252 51.1126 34.5346 53.0886 35.5587 54.8587C36.5801 56.6289 37.9875 58.0131 39.7783 59.0063C41.5742 60.002 43.5785 60.4986 45.7886 60.4986Z" fill="white"/>
<path d="M64.4563 34.9751H67.41V62.8964H64.4563V34.9751Z" fill="white"/>
<path d="M97.2408 34.9751V62.8964H94.8119L76.8633 40.2341V62.8964H73.9095V34.9751H76.3384L94.3282 57.6271V34.9751H97.2408Z" fill="white"/>
<path d="M109.17 37.5274H99.3618V34.9751H121.931V37.5274H112.123V62.8964H109.17V37.5274Z" fill="white"/>
<path d="M19.6591 32.0043C16.8932 32.0043 14.4001 31.3945 12.1771 30.1724C9.95924 28.9529 8.21995 27.2573 6.95922 25.0883C5.69592 22.9219 5.06555 20.4931 5.06555 17.8018C5.06555 15.1208 5.69592 12.6946 6.95922 10.5256C8.21995 8.35922 9.96696 6.66367 12.1977 5.44154C14.4335 4.22197 16.9344 3.60962 19.7003 3.60962C21.7715 3.60962 23.6857 3.95696 25.4431 4.64908C27.1978 5.33605 28.6875 6.34463 29.9096 7.67483L28.0366 9.54791C25.8547 7.34035 23.1017 6.23399 19.7826 6.23399C17.5725 6.23399 15.5631 6.74343 13.7517 7.75716C11.9455 8.76574 10.533 10.15 9.51155 11.9047C8.48753 13.662 7.97809 15.6277 7.97809 17.8018C7.97809 19.9837 8.48753 21.9545 9.51155 23.7092C10.533 25.4665 11.9455 26.8482 13.7517 27.8568C15.5631 28.8654 17.5725 29.3697 19.7826 29.3697C23.13 29.3697 25.8804 28.2556 28.0366 26.0249L29.9096 27.898C28.6875 29.2307 27.1926 30.2496 25.4225 30.9546C23.6523 31.6544 21.7303 32.0043 19.6591 32.0043Z" fill="white"/>
<path d="M53.1993 3.84644V31.7677H50.2867V18.8826H32.8218V31.7677H29.868V3.84644H32.8218V16.2891H50.2867V3.84644H53.1993Z" fill="white"/>
<path d="M75.689 29.2154V31.7677H55.9496V3.84644H75.0921V6.39877H58.9033V16.3302H73.3425V18.8414H58.9033V29.2154H75.689Z" fill="white"/>
<path d="M88.4116 32.0043C85.6457 32.0043 83.1525 31.3945 80.9295 30.1724C78.7117 28.9529 76.9724 27.2573 75.7117 25.0883C74.4484 22.9219 73.818 20.4931 73.818 17.8018C73.818 15.1208 74.4484 12.6946 75.7117 10.5256C76.9724 8.35922 78.7194 6.66367 80.9501 5.44154C83.186 4.22197 85.6869 3.60962 88.4527 3.60962C90.5239 3.60962 92.4382 3.95696 94.1955 4.64908C95.9502 5.33605 97.4399 6.34463 98.6621 7.67483L96.789 9.54791C94.6072 7.34035 91.8541 6.23399 88.5351 6.23399C86.3249 6.23399 84.3155 6.74343 82.5042 7.75716C80.698 8.76574 79.2854 10.15 78.264 11.9047C77.24 13.662 76.7305 15.6277 76.7305 17.8018C76.7305 19.9837 77.24 21.9545 78.264 23.7092C79.2854 25.4665 80.698 26.8482 82.5042 27.8568C84.3155 28.8654 86.3249 29.3697 88.5351 29.3697C91.8824 29.3697 94.6329 28.2556 96.789 26.0249L98.6621 27.898C97.4399 29.2307 95.9451 30.2496 94.1749 30.9546C92.4047 31.6544 90.4828 32.0043 88.4116 32.0043Z" fill="white"/>
<path d="M107.276 18.6459L101.574 24.4298V31.7677H98.6204V3.84644H101.574V20.7145L117.969 3.84644H121.355L109.272 16.4846L122.199 31.7677H118.679L107.276 18.6459Z" fill="white"/>
<mask id="mask2_435_4734" style="mask-type:luminance" maskUnits="userSpaceOnUse" x="123" y="2" width="64" height="64">
<path d="M123.6 2.9126H186.832V65.1566H123.6V2.9126Z" fill="white"/>
</mask>
<g mask="url(#mask2_435_4734)">
<path d="M126.577 6.13382V27.4144C126.577 28.1091 127.141 28.6751 127.835 28.6751H149.116C149.811 28.6751 150.374 28.1091 150.374 27.4144V6.13382C150.374 5.43914 149.811 4.87567 149.116 4.87567H127.835C127.138 4.87567 126.577 5.43914 126.577 6.13382ZM129.091 7.39198H147.855V26.1537H129.091V7.39198ZM116.381 9.60726V-4.06007C116.381 -4.75476 116.944 -5.3208 117.639 -5.3208H131.309C132.003 -5.3208 132.567 -4.75476 132.567 -4.06007C132.567 -3.36538 132.003 -2.80192 131.309 -2.80192H118.9V9.60726C118.9 10.3019 118.334 10.8654 117.639 10.8654C116.944 10.8654 116.381 10.3019 116.381 9.60726ZM178.246 -4.06007C178.246 -4.75476 178.81 -5.3208 179.505 -5.3208H193.175C193.869 -5.3208 194.433 -4.75476 194.433 -4.06007V9.60726C194.433 10.3019 193.869 10.8654 193.175 10.8654C192.48 10.8654 191.916 10.3019 191.916 9.60726V-2.80192H179.505C178.81 -2.80192 178.246 -3.36538 178.246 -4.06007ZM132.567 71.473C132.567 72.1677 132.003 72.7312 131.309 72.7312H117.639C116.944 72.7312 116.381 72.1677 116.381 71.473V57.8057C116.381 57.111 116.944 56.5476 117.639 56.5476C118.334 56.5476 118.9 57.111 118.9 57.8057V70.2149H131.309C132.003 70.2149 132.567 70.7784 132.567 71.473ZM194.433 57.8057V71.473C194.433 72.1677 193.869 72.7312 193.175 72.7312H179.505C178.81 72.7312 178.246 72.1677 178.246 71.473C178.246 70.7784 178.81 70.2149 179.505 70.2149H191.916V57.8057C191.916 57.111 192.48 56.5476 193.175 56.5476C193.869 56.5476 194.433 57.111 194.433 57.8057ZM161.697 28.6751H182.978C183.673 28.6751 184.239 28.1091 184.239 27.4144V6.13382C184.239 5.43914 183.673 4.87567 182.978 4.87567H161.697C161.003 4.87567 160.439 5.43914 160.439 6.13382V27.4144C160.439 28.1091 161.003 28.6751 161.697 28.6751ZM162.956 7.39198H181.72V26.1537H162.956V7.39198ZM149.116 38.7378H127.835C127.141 38.7378 126.577 39.3039 126.577 39.9986V61.2791C126.577 61.9738 127.141 62.5373 127.835 62.5373H149.116C149.811 62.5373 150.374 61.9738 150.374 61.2791V39.9986C150.374 39.3039 149.811 38.7378 149.116 38.7378ZM147.858 60.021H129.091V41.2567H147.855V60.021H147.858ZM165.441 56.2774H161.697C161.003 56.2774 160.439 56.8409 160.439 57.5356V61.2791C160.439 61.9738 161.003 62.5373 161.697 62.5373H165.441C166.136 62.5373 166.699 61.9738 166.699 61.2791V57.5356C166.699 56.8409 166.138 56.2774 165.441 56.2774ZM164.183 60.021H162.956V58.7963H164.183V60.021ZM156.665 6.13382V6.14926C156.665 6.84395 156.101 7.40742 155.407 7.40742C154.712 7.40742 154.149 6.84395 154.149 6.14926V6.13382C154.149 5.43914 154.712 4.87567 155.407 4.87567C156.101 4.87567 156.665 5.43914 156.665 6.13382ZM156.665 10.6236V27.4144C156.665 28.1091 156.101 28.6751 155.407 28.6751C154.712 28.6751 154.149 28.1091 154.149 27.4144V10.6236C154.149 9.92888 154.712 9.36541 155.407 9.36541C156.101 9.36541 156.665 9.92888 156.665 10.6236ZM156.665 33.6975V33.7129C156.665 34.4076 156.101 34.9711 155.407 34.9711C154.712 34.9711 154.149 34.4076 154.149 33.7129V33.6975C154.149 33.0028 154.712 32.4393 155.407 32.4393C156.101 32.4393 156.665 33.0028 156.665 33.6975ZM156.665 61.2637V61.2791C156.665 61.9738 156.101 62.5373 155.407 62.5373C154.712 62.5373 154.149 61.9738 154.149 61.2791V61.2637C154.149 60.569 154.712 60.0056 155.407 60.0056C156.101 60.0056 156.665 60.569 156.665 61.2637ZM156.665 39.9986V56.7894C156.665 57.4841 156.101 58.0476 155.407 58.0476C154.712 58.0476 154.149 57.4841 154.149 56.7894V39.9986C154.149 39.3039 154.712 38.7378 155.407 38.7378C156.101 38.7378 156.665 39.3039 156.665 39.9986ZM127.848 32.447C128.543 32.447 129.109 33.0131 129.109 33.7052C129.109 34.3999 128.543 34.9659 127.848 34.9659H127.835C127.141 34.9659 126.577 34.3999 126.577 33.7052C126.577 33.0131 127.141 32.447 127.835 32.447H127.848ZM150.374 33.7052C150.374 34.3999 149.811 34.9659 149.116 34.9659H132.325C131.63 34.9659 131.067 34.3999 131.067 33.7052C131.067 33.0131 131.63 32.447 132.325 32.447H149.116C149.811 32.447 150.374 33.0131 150.374 33.7052ZM184.239 33.7052C184.239 34.3999 183.673 34.9659 182.978 34.9659H182.965C182.271 34.9659 181.707 34.3999 181.707 33.7052C181.707 33.0131 182.271 32.447 182.965 32.447H182.978C183.675 32.447 184.239 33.0131 184.239 33.7052ZM178.488 34.9659H161.697C161.003 34.9659 160.439 34.3999 160.439 33.7052C160.439 33.0131 161.003 32.447 161.697 32.447H178.488C179.183 32.447 179.749 33.0131 179.749 33.7052C179.749 34.3999 179.183 34.9659 178.488 34.9659ZM143.144 13.3637V20.1845C143.144 20.8792 142.578 21.4427 141.886 21.4427H135.065C134.371 21.4427 133.807 20.8792 133.807 20.1845V13.3637C133.807 12.669 134.371 12.1056 135.065 12.1056H141.886C142.578 12.1056 143.144 12.669 143.144 13.3637ZM177.009 13.3637V20.1845C177.009 20.8792 176.445 21.4427 175.751 21.4427H168.93C168.235 21.4427 167.672 20.8792 167.672 20.1845V13.3637C167.672 12.669 168.235 12.1056 168.93 12.1056H175.751C176.445 12.1056 177.009 12.669 177.009 13.3637ZM133.807 54.0493V47.2285C133.807 46.5338 134.371 45.9703 135.065 45.9703H141.886C142.578 45.9703 143.144 46.5338 143.144 47.2285V54.0493C143.144 54.7439 142.578 55.3074 141.886 55.3074H135.065C134.371 55.3074 133.807 54.7439 133.807 54.0493ZM160.439 43.7962V39.9986C160.439 39.3039 161.003 38.7404 161.697 38.7404C162.392 38.7404 162.956 39.3039 162.956 39.9986V43.7962C162.956 44.4909 162.392 45.0543 161.697 45.0543C161.003 45.0543 160.439 44.4909 160.439 43.7962ZM166.954 41.2567V43.7962C166.954 44.4883 166.393 45.0492 165.704 45.0492C165.009 45.0492 164.451 44.4883 164.451 43.7962V39.9986C164.451 39.3039 165.011 38.7455 165.704 38.7455C165.74 38.7455 165.776 38.7455 165.812 38.7507C165.86 38.7455 165.912 38.7404 165.961 38.7404H170.368C171.063 38.7404 171.626 39.3039 171.626 39.9986C171.626 40.6932 171.063 41.2567 170.368 41.2567H166.954ZM184.239 39.9986V61.2791C184.239 61.9738 183.673 62.5373 182.978 62.5373C182.283 62.5373 181.72 61.9738 181.72 61.2791V39.9986C181.72 39.3039 182.283 38.7378 182.978 38.7378C183.675 38.7378 184.239 39.3039 184.239 39.9986ZM160.439 47.4034V47.3905C160.439 46.6959 161.003 46.1324 161.697 46.1324C162.392 46.1324 162.956 46.6959 162.956 47.3905V47.4034C162.956 48.0981 162.392 48.6641 161.697 48.6641C161.003 48.6641 160.439 48.0981 160.439 47.4034ZM171.624 43.7807V43.7936C171.624 44.4883 171.06 45.0543 170.366 45.0543C169.671 45.0543 169.107 44.4883 169.107 43.7936V43.7807C169.107 43.0861 169.671 42.5226 170.366 42.5226C171.06 42.5226 171.624 43.0861 171.624 43.7807ZM180.264 39.9986C180.264 40.6932 179.7 41.2567 179.005 41.2567H174.634C173.939 41.2567 173.376 40.6932 173.376 39.9986C173.376 39.3039 173.939 38.7378 174.634 38.7378H179.005C179.7 38.7378 180.264 39.3039 180.264 39.9986ZM160.439 53.8074V51.2396C160.439 50.5449 161.003 49.9815 161.697 49.9815C162.392 49.9815 162.956 50.5449 162.956 51.2396V53.8074C162.956 54.5021 162.392 55.0656 161.697 55.0656C161.003 55.0656 160.439 54.5021 160.439 53.8074ZM179.005 62.5373H174.634C173.939 62.5373 173.376 61.9738 173.376 61.2791C173.376 60.5845 173.939 60.021 174.634 60.021H179.005C179.7 60.021 180.264 60.5845 180.264 61.2791C180.264 61.9738 179.7 62.5373 179.005 62.5373ZM173.376 57.5381C173.376 56.8434 173.939 56.28 174.634 56.28H179.005C179.7 56.28 180.264 56.8434 180.264 57.5381C180.264 58.2328 179.7 58.7963 179.005 58.7963H174.634C173.939 58.7963 173.376 58.2328 173.376 57.5381ZM173.088 47.3905C173.088 48.0852 172.524 48.6487 171.83 48.6487H168.951C168.256 48.6487 167.69 48.0852 167.69 47.3905C167.69 46.6959 168.256 46.1324 168.951 46.1324H171.83C172.524 46.1324 173.088 46.6959 173.088 47.3905ZM170.852 61.2637V61.2791C170.852 61.9738 170.288 62.5373 169.594 62.5373C168.899 62.5373 168.336 61.9738 168.336 61.2791V61.2637C168.336 60.569 168.899 60.0056 169.594 60.0056C170.291 60.0056 170.852 60.569 170.852 61.2637ZM170.852 57.5304V57.5433C170.852 58.238 170.288 58.8014 169.594 58.8014C168.899 58.8014 168.336 58.238 168.336 57.5433V57.5304C168.336 56.8357 168.899 56.2723 169.594 56.2723C170.291 56.2723 170.852 56.8357 170.852 57.5304ZM166.699 53.792V53.8074C166.699 54.5021 166.136 55.0656 165.441 55.0656C164.746 55.0656 164.183 54.5021 164.183 53.8074V53.792C164.183 53.0973 164.746 52.5338 165.441 52.5338C166.136 52.5338 166.699 53.0973 166.699 53.792ZM166.699 50.5861C166.699 51.2808 166.136 51.8468 165.441 51.8468C164.746 51.8468 164.183 51.2808 164.183 50.5861C164.183 49.8914 164.746 49.3279 165.441 49.3279C166.136 49.3254 166.699 49.8914 166.699 50.5861ZM166.699 47.4034C166.699 48.0981 166.136 48.6641 165.441 48.6641C164.746 48.6641 164.183 48.0981 164.183 47.4034V47.3905C164.183 46.6959 164.746 46.1324 165.441 46.1324C166.136 46.1324 166.699 46.6959 166.699 47.3905V47.4034ZM179.003 45.0543C178.308 45.0543 177.745 44.4909 177.745 43.7962V43.7833C177.745 43.0886 178.308 42.5252 179.003 42.5252C179.698 42.5252 180.261 43.0886 180.261 43.7833V43.7962C180.261 44.4909 179.698 45.0543 179.003 45.0543ZM172.365 43.7807C172.365 43.0861 172.928 42.5226 173.623 42.5226H175.411C176.106 42.5226 176.669 43.0861 176.669 43.7807C176.669 44.4754 176.106 45.0389 175.411 45.0389H173.623C172.928 45.0389 172.365 44.4754 172.365 43.7807ZM180.264 47.3905C180.264 46.6959 179.7 46.1324 179.005 46.1324H175.262C174.567 46.1324 174.004 46.6959 174.004 47.3905V51.1341C174.004 51.8288 174.567 52.3923 175.262 52.3923H179.005C179.7 52.3923 180.264 51.8288 180.264 51.1341V47.3905ZM177.745 49.876H176.52V48.6487H177.745V49.876ZM173.088 50.7122C173.088 51.4069 172.524 51.9703 171.83 51.9703H168.951C168.256 51.9703 167.69 51.4069 167.69 50.7122C167.69 50.0175 168.256 49.454 168.951 49.454H171.83C172.524 49.454 173.088 50.0175 173.088 50.7122ZM173.088 53.8074C173.088 54.5021 172.524 55.0656 171.83 55.0656H168.951C168.256 55.0656 167.69 54.5021 167.69 53.8074C167.69 53.1127 168.256 52.5492 168.951 52.5492H171.83C172.524 52.5492 173.088 53.1127 173.088 53.8074ZM175.262 55.4849C174.567 55.4849 174.004 54.9215 174.004 54.2268V54.2139C174.004 53.5192 174.567 52.9532 175.262 52.9532C175.957 52.9532 176.52 53.5192 176.52 54.2139V54.2268C176.52 54.9215 175.957 55.4849 175.262 55.4849ZM179.003 55.4849C178.308 55.4849 177.745 54.9215 177.745 54.2268V54.2139C177.745 53.5192 178.308 52.9532 179.003 52.9532C179.698 52.9532 180.261 53.5192 180.261 54.2139V54.2268C180.261 54.9215 179.698 55.4849 179.003 55.4849Z" fill="white"/>
</g>
<mask id="mask3_435_4734" style="mask-type:luminance" maskUnits="userSpaceOnUse" x="169" y="0" width="22" height="21">
<path d="M169.262 0H190.684V20.9976H169.262V0Z" fill="white"/>
</mask>
<g mask="url(#mask3_435_4734)">
<path d="M169.429 1.31733H188.921V20.6399H190.681V0H169.429V1.31733Z" fill="white"/>
</g>
<mask id="mask4_435_4734" style="mask-type:luminance" maskUnits="userSpaceOnUse" x="0" y="0" width="22" height="21">
<path d="M0 0H21.0619V20.9976H0V0Z" fill="white"/>
</mask>
<g mask="url(#mask4_435_4734)">
<path d="M1.2658 20.6399V1.31733H20.7582V0H-0.49408V20.6399H1.2658Z" fill="white"/>
</g>
</svg>
