<svg width="71" height="72" viewBox="0 0 71 72" fill="none" xmlns="http://www.w3.org/2000/svg">
<g clip-path="url(#clip0_46_17622)">
<rect y="0.5" width="71" height="71" rx="8.875" fill="white"/>
<path d="M11.0433 8.38916C10.2063 8.38916 9.40372 8.72162 8.81194 9.3134C8.22016 9.90518 7.8877 10.7078 7.8877 11.5447V24.1669H23.6655V8.38916H11.0433ZM19.721 20.2225H11.8321V12.3336H19.721V20.2225Z" fill="#A8008D"/>
<path d="M7.8877 60.4555C7.8877 61.2924 8.22016 62.095 8.81194 62.6868C9.40372 63.2786 10.2063 63.611 11.0433 63.611H23.6655V47.8333H7.8877V60.4555ZM11.8321 51.7777H19.721V59.6666H11.8321V51.7777Z" fill="#A8008D"/>
<path d="M47.3339 63.611H59.9561C60.793 63.611 61.5956 63.2786 62.1874 62.6868C62.7792 62.095 63.1116 61.2924 63.1116 60.4555V47.8333H47.3339V63.611ZM51.2783 51.7777H59.1672V59.6666H51.2783V51.7777Z" fill="#A8008D"/>
<path d="M59.9561 8.38916H47.3339V24.1669H63.1116V11.5447C63.1116 10.7078 62.7792 9.90518 62.1874 9.3134C61.5956 8.72162 60.793 8.38916 59.9561 8.38916ZM59.1672 20.2225H51.2783V12.3336H59.1672V20.2225Z" fill="#A8008D"/>
<path d="M39.4442 20.2228V16.2783H31.5554V24.1672H35.4998V20.2228H39.4442Z" fill="#A8008D"/>
<path d="M23.6661 24.1667H27.6106V28.1112H23.6661V24.1667Z" fill="#A8008D"/>
<path d="M27.6123 28.1108H35.5012V32.0553H27.6123V28.1108Z" fill="#A8008D"/>
<path d="M39.4456 12.3336V16.278H43.3901V8.38916H27.6123V16.278H31.5567V12.3336H39.4456Z" fill="#A8008D"/>
<path d="M7.8877 28.1108H11.8321V35.9997H7.8877V28.1108Z" fill="#A8008D"/>
<path d="M23.6655 32.0553V35.9997H19.721V28.1108H15.7766V35.9997H11.8321V39.9442H7.8877V43.8886H15.7766V39.9442H19.721V43.8886H23.6655V39.9442H27.6099V32.0553H23.6655Z" fill="#A8008D"/>
<path d="M39.4444 32.055H43.3889V35.9995H47.3333V32.055H51.2778V28.1106H43.3889V20.2217H39.4444V24.1661H35.5V28.1106H39.4444V32.055Z" fill="#A8008D"/>
<path d="M35.5012 59.6661H27.6123V63.6106H43.3901V59.6661H39.4456V55.7217H35.5012V59.6661Z" fill="#A8008D"/>
<path d="M43.3887 39.9441V35.9996H39.4442V32.0552H35.4998V35.9996H31.5554V39.9441H35.4998V43.8885H39.4442V39.9441H43.3887Z" fill="#A8008D"/>
<path d="M59.1661 39.9448H63.1106V43.8893H59.1661V39.9448Z" fill="#A8008D"/>
<path d="M43.3877 39.9448H55.221V43.8893H43.3877V39.9448Z" fill="#A8008D"/>
<path d="M59.1673 28.1108H55.2229V32.0553H51.2784V35.9997H55.2229V39.9442H59.1673V35.9997H63.1118V32.0553H59.1673V28.1108Z" fill="#A8008D"/>
<path d="M39.4446 43.8892H43.3891V55.7225H39.4446V43.8892Z" fill="#A8008D"/>
<path d="M27.6123 55.7226H31.5567V51.7782H35.5012V47.8337H31.5567V39.9448H27.6123V55.7226Z" fill="#A8008D"/>
</g>
<defs>
<clipPath id="clip0_46_17622">
<rect y="0.5" width="71" height="71" rx="8.875" fill="white"/>
</clipPath>
</defs>
</svg>
