<svg width="36" height="36" viewBox="0 0 36 36" fill="none" xmlns="http://www.w3.org/2000/svg">
<rect x="0.870422" y="0.862793" width="34.2865" height="34.2865" rx="4.28581" fill="white"/>
<path d="M6.20329 4.67236C5.79914 4.67236 5.41154 4.83291 5.12577 5.11869C4.83999 5.40446 4.67944 5.79206 4.67944 6.19621V12.2916H12.2987V4.67236H6.20329ZM10.3939 10.3868H6.58425V6.57717H10.3939V10.3868Z" fill="#717171"/>
<path d="M4.67944 29.8156C4.67944 30.2197 4.83999 30.6073 5.12577 30.8931C5.41154 31.1789 5.79914 31.3394 6.20329 31.3394H12.2987V23.7202H4.67944V29.8156ZM6.58425 25.625H10.3939V29.4346H6.58425V25.625Z" fill="#717171"/>
<path d="M23.7283 31.3394H29.8237C30.2279 31.3394 30.6155 31.1789 30.9012 30.8931C31.187 30.6073 31.3476 30.2197 31.3476 29.8156V23.7202H23.7283V31.3394ZM25.6331 25.625H29.4427V29.4346H25.6331V25.625Z" fill="#717171"/>
<path d="M29.8237 4.67236H23.7283V12.2916H31.3476V6.19621C31.3476 5.79206 31.187 5.40446 30.9012 5.11869C30.6155 4.83291 30.2279 4.67236 29.8237 4.67236ZM29.4427 10.3868H25.6331V6.57717H29.4427V10.3868Z" fill="#717171"/>
<path d="M19.9184 10.3872V8.48242H16.1088V12.292H18.0136V10.3872H19.9184Z" fill="#717171"/>
<path d="M12.299 12.2915H14.2038V14.1963H12.299V12.2915Z" fill="#717171"/>
<path d="M14.2047 14.1968H18.0143V16.1016H14.2047V14.1968Z" fill="#717171"/>
<path d="M19.9191 6.57717V8.48197H21.8239V4.67236H14.2047V8.48197H16.1095V6.57717H19.9191Z" fill="#717171"/>
<path d="M4.67944 14.1968H6.58425V18.0064H4.67944V14.1968Z" fill="#717171"/>
<path d="M12.2987 16.1016V18.0064H10.3939V14.1968H8.48905V18.0064H6.58425V19.9112H4.67944V21.816H8.48905V19.9112H10.3939V21.816H12.2987V19.9112H14.2035V16.1016H12.2987Z" fill="#717171"/>
<path d="M19.9185 16.1011H21.8233V18.0059H23.7281V16.1011H25.6329V14.1963H21.8233V10.3867H19.9185V12.2915H18.0137V14.1963H19.9185V16.1011Z" fill="#717171"/>
<path d="M18.0143 29.4346H14.2047V31.3394H21.8239V29.4346H19.9191V27.5298H18.0143V29.4346Z" fill="#717171"/>
<path d="M21.8232 19.9107V18.0059H19.9184V16.1011H18.0136V18.0059H16.1088V19.9107H18.0136V21.8155H19.9184V19.9107H21.8232Z" fill="#717171"/>
<path d="M29.4423 19.9111H31.3471V21.8159H29.4423V19.9111Z" fill="#717171"/>
<path d="M21.8227 19.9111H27.5371V21.8159H21.8227V19.9111Z" fill="#717171"/>
<path d="M29.4428 14.1968H27.538V16.1016H25.6332V18.0064H27.538V19.9112H29.4428V18.0064H31.3476V16.1016H29.4428V14.1968Z" fill="#717171"/>
<path d="M19.9185 21.8154H21.8233V27.5298H19.9185V21.8154Z" fill="#717171"/>
<path d="M14.2047 27.5304H16.1095V25.6255H18.0143V23.7207H16.1095V19.9111H14.2047V27.5304Z" fill="#717171"/>
</svg>
