<svg width="24" height="25" viewBox="0 0 24 25" fill="none" xmlns="http://www.w3.org/2000/svg">
<path d="M17 20.0862H22V18.0862C22 16.4293 20.6569 15.0862 19 15.0862C18.0444 15.0862 17.1931 15.533 16.6438 16.2291M17 20.0862H7M17 20.0862V18.0862C17 17.4299 16.8736 16.8032 16.6438 16.2291M7 20.0862H2V18.0862C2 16.4293 3.34315 15.0862 5 15.0862C5.95561 15.0862 6.80686 15.533 7.35625 16.2291M7 20.0862V18.0862C7 17.4299 7.12642 16.8032 7.35625 16.2291M7.35625 16.2291C8.0935 14.3872 9.89482 13.0862 12 13.0862C14.1052 13.0862 15.9065 14.3872 16.6438 16.2291M15 7.08618C15 8.74304 13.6569 10.0862 12 10.0862C10.3431 10.0862 9 8.74304 9 7.08618C9 5.42933 10.3431 4.08618 12 4.08618C13.6569 4.08618 15 5.42933 15 7.08618ZM21 10.0862C21 11.1908 20.1046 12.0862 19 12.0862C17.8954 12.0862 17 11.1908 17 10.0862C17 8.98161 17.8954 8.08618 19 8.08618C20.1046 8.08618 21 8.98161 21 10.0862ZM7 10.0862C7 11.1908 6.10457 12.0862 5 12.0862C3.89543 12.0862 3 11.1908 3 10.0862C3 8.98161 3.89543 8.08618 5 8.08618C6.10457 8.08618 7 8.98161 7 10.0862Z" stroke="#FBFCFD" stroke-width="1.5" stroke-linecap="round" stroke-linejoin="round"/>
</svg>
